<svg xmlns="http://www.w3.org/2000/svg" viewBox="0 0 1920 1080" width="1920" height="1080">
  <defs>
    <!-- ═══════════ GRADIENTS ═══════════ -->
    <radialGradient id="bgBase" cx="50%" cy="45%" r="80%">
      <stop offset="0%" stop-color="#0a0e1a"/>
      <stop offset="40%" stop-color="#060a14"/>
      <stop offset="100%" stop-color="#020408"/>
    </radialGradient>

    <!-- Warm orange/gold glow -->
    <radialGradient id="glowOrange" cx="50%" cy="50%" r="50%">
      <stop offset="0%" stop-color="#f59e0b" stop-opacity="0.18"/>
      <stop offset="60%" stop-color="#ea580c" stop-opacity="0.06"/>
      <stop offset="100%" stop-color="#ea580c" stop-opacity="0"/>
    </radialGradient>
    <radialGradient id="glowGold" cx="50%" cy="50%" r="50%">
      <stop offset="0%" stop-color="#fbbf24" stop-opacity="0.14"/>
      <stop offset="100%" stop-color="#f59e0b" stop-opacity="0"/>
    </radialGradient>

    <!-- Purple glow -->
    <radialGradient id="glowPurple" cx="50%" cy="50%" r="50%">
      <stop offset="0%" stop-color="#a855f7" stop-opacity="0.16"/>
      <stop offset="50%" stop-color="#7c3aed" stop-opacity="0.06"/>
      <stop offset="100%" stop-color="#6d28d9" stop-opacity="0"/>
    </radialGradient>
    <radialGradient id="glowViolet" cx="50%" cy="50%" r="50%">
      <stop offset="0%" stop-color="#c084fc" stop-opacity="0.12"/>
      <stop offset="100%" stop-color="#8b5cf6" stop-opacity="0"/>
    </radialGradient>

    <!-- Neon blue/cyan glow -->
    <radialGradient id="glowCyan" cx="50%" cy="50%" r="50%">
      <stop offset="0%" stop-color="#22d3ee" stop-opacity="0.15"/>
      <stop offset="60%" stop-color="#0891b2" stop-opacity="0.05"/>
      <stop offset="100%" stop-color="#06b6d4" stop-opacity="0"/>
    </radialGradient>
    <radialGradient id="glowBlue" cx="50%" cy="50%" r="50%">
      <stop offset="0%" stop-color="#3b82f6" stop-opacity="0.12"/>
      <stop offset="100%" stop-color="#2563eb" stop-opacity="0"/>
    </radialGradient>

    <!-- Indigo center glow -->
    <radialGradient id="glowIndigo" cx="50%" cy="50%" r="50%">
      <stop offset="0%" stop-color="#6366f1" stop-opacity="0.1"/>
      <stop offset="100%" stop-color="#4f46e5" stop-opacity="0"/>
    </radialGradient>

    <!-- Light streak gradients -->
    <linearGradient id="streakOrange" x1="0%" y1="0%" x2="100%" y2="0%">
      <stop offset="0%" stop-color="#f59e0b" stop-opacity="0"/>
      <stop offset="30%" stop-color="#f59e0b" stop-opacity="0.15"/>
      <stop offset="70%" stop-color="#ea580c" stop-opacity="0.08"/>
      <stop offset="100%" stop-color="#ea580c" stop-opacity="0"/>
    </linearGradient>
    <linearGradient id="streakPurple" x1="0%" y1="0%" x2="100%" y2="0%">
      <stop offset="0%" stop-color="#a855f7" stop-opacity="0"/>
      <stop offset="40%" stop-color="#a855f7" stop-opacity="0.12"/>
      <stop offset="100%" stop-color="#7c3aed" stop-opacity="0"/>
    </linearGradient>
    <linearGradient id="streakCyan" x1="0%" y1="0%" x2="100%" y2="0%">
      <stop offset="0%" stop-color="#22d3ee" stop-opacity="0"/>
      <stop offset="50%" stop-color="#22d3ee" stop-opacity="0.1"/>
      <stop offset="100%" stop-color="#06b6d4" stop-opacity="0"/>
    </linearGradient>
    <linearGradient id="streakGold" x1="0%" y1="0%" x2="100%" y2="0%">
      <stop offset="0%" stop-color="#fbbf24" stop-opacity="0"/>
      <stop offset="35%" stop-color="#fbbf24" stop-opacity="0.08"/>
      <stop offset="100%" stop-color="#f59e0b" stop-opacity="0"/>
    </linearGradient>

    <!-- UI panel gradient -->
    <linearGradient id="panelGrad1" x1="0%" y1="0%" x2="100%" y2="100%">
      <stop offset="0%" stop-color="#6366f1" stop-opacity="0.06"/>
      <stop offset="100%" stop-color="#4f46e5" stop-opacity="0.02"/>
    </linearGradient>
    <linearGradient id="panelGrad2" x1="0%" y1="0%" x2="0%" y2="100%">
      <stop offset="0%" stop-color="#a855f7" stop-opacity="0.05"/>
      <stop offset="100%" stop-color="#7c3aed" stop-opacity="0.01"/>
    </linearGradient>
    <linearGradient id="panelGrad3" x1="100%" y1="0%" x2="0%" y2="100%">
      <stop offset="0%" stop-color="#f59e0b" stop-opacity="0.04"/>
      <stop offset="100%" stop-color="#ea580c" stop-opacity="0.01"/>
    </linearGradient>

    <!-- Vignette -->
    <radialGradient id="vignette" cx="50%" cy="50%" r="70%">
      <stop offset="0%" stop-color="transparent"/>
      <stop offset="70%" stop-color="transparent"/>
      <stop offset="100%" stop-color="#000000" stop-opacity="0.6"/>
    </radialGradient>

    <!-- ═══════════ PATTERNS ═══════════ -->
    <pattern id="gridFine" width="40" height="40" patternUnits="userSpaceOnUse">
      <path d="M 40 0 L 0 0 0 40" fill="none" stroke="#6366f1" stroke-opacity="0.035" stroke-width="0.5"/>
    </pattern>
    <pattern id="gridCoarse" width="120" height="120" patternUnits="userSpaceOnUse">
      <path d="M 120 0 L 0 0 0 120" fill="none" stroke="#6366f1" stroke-opacity="0.05" stroke-width="0.8"/>
    </pattern>
    <pattern id="scanlines" width="4" height="4" patternUnits="userSpaceOnUse">
      <line x1="0" y1="0" x2="4" y2="0" stroke="#ffffff" stroke-opacity="0.012" stroke-width="1"/>
    </pattern>
    <pattern id="noise" width="100" height="100" patternUnits="userSpaceOnUse">
      <circle cx="12" cy="8" r="0.6" fill="#fff" opacity="0.03"/>
      <circle cx="45" cy="23" r="0.4" fill="#fff" opacity="0.02"/>
      <circle cx="78" cy="15" r="0.5" fill="#fff" opacity="0.025"/>
      <circle cx="33" cy="67" r="0.7" fill="#fff" opacity="0.02"/>
      <circle cx="88" cy="52" r="0.4" fill="#fff" opacity="0.03"/>
      <circle cx="5" cy="89" r="0.5" fill="#fff" opacity="0.02"/>
      <circle cx="62" cy="78" r="0.6" fill="#fff" opacity="0.025"/>
      <circle cx="95" cy="95" r="0.4" fill="#fff" opacity="0.02"/>
      <circle cx="25" cy="42" r="0.5" fill="#fff" opacity="0.015"/>
      <circle cx="55" cy="55" r="0.3" fill="#fff" opacity="0.02"/>
      <circle cx="72" cy="35" r="0.5" fill="#fff" opacity="0.018"/>
      <circle cx="18" cy="72" r="0.4" fill="#fff" opacity="0.022"/>
    </pattern>

    <!-- ═══════════ FILTERS ═══════════ -->
    <filter id="blurHeavy"><feGaussianBlur stdDeviation="90"/></filter>
    <filter id="blurMedium"><feGaussianBlur stdDeviation="50"/></filter>
    <filter id="blurLight"><feGaussianBlur stdDeviation="25"/></filter>
    <filter id="blurSoft"><feGaussianBlur stdDeviation="12"/></filter>
    <filter id="blurTiny"><feGaussianBlur stdDeviation="5"/></filter>
    <filter id="motionBlurH">
      <feGaussianBlur stdDeviation="40,2"/>
    </filter>
    <filter id="motionBlurDiag">
      <feGaussianBlur stdDeviation="30,8"/>
    </filter>
    <filter id="glowFilter">
      <feGaussianBlur stdDeviation="8" result="blur"/>
      <feComposite in="SourceGraphic" in2="blur" operator="over"/>
    </filter>
    <filter id="glowFilterStrong">
      <feGaussianBlur stdDeviation="15" result="blur"/>
      <feComposite in="SourceGraphic" in2="blur" operator="over"/>
    </filter>
    <filter id="distort1">
      <feTurbulence type="turbulence" baseFrequency="0.015" numOctaves="3" result="turb"/>
      <feDisplacementMap in="SourceGraphic" in2="turb" scale="12" xChannelSelector="R" yChannelSelector="G"/>
    </filter>
    <filter id="chromaticAberr">
      <feOffset in="SourceGraphic" dx="2" dy="0" result="red"/>
      <feOffset in="SourceGraphic" dx="-2" dy="0" result="blue"/>
      <feBlend in="red" in2="blue" mode="screen"/>
    </filter>

    <!-- ═══════════ CLIP PATHS ═══════════ -->
    <clipPath id="warpedEdge1">
      <path d="M100,50 Q180,30 260,55 Q340,80 400,45 Q460,10 520,50 L520,320 Q460,350 400,310 Q340,280 260,320 Q180,350 100,310Z"/>
    </clipPath>
    <clipPath id="warpedEdge2">
      <path d="M0,20 Q60,0 120,25 Q180,50 240,15 L240,200 Q180,230 120,190 Q60,160 0,200Z"/>
    </clipPath>
  </defs>

  <!-- ═══════════ LAYER 0: DEEP BASE ═══════════ -->
  <rect width="1920" height="1080" fill="url(#bgBase)"/>

  <!-- ═══════════ LAYER 1: AMBIENT GLOW FIELDS ═══════════ -->
  <!-- Large atmospheric color washes -->
  <ellipse cx="350" cy="250" rx="600" ry="450" fill="url(#glowOrange)" filter="url(#blurHeavy)"/>
  <ellipse cx="1550" cy="180" rx="500" ry="400" fill="url(#glowPurple)" filter="url(#blurHeavy)"/>
  <ellipse cx="960" cy="600" rx="700" ry="500" fill="url(#glowIndigo)" filter="url(#blurHeavy)" opacity="0.6"/>
  <ellipse cx="1650" cy="850" rx="550" ry="400" fill="url(#glowOrange)" filter="url(#blurHeavy)" opacity="0.5"/>
  <ellipse cx="200" cy="800" rx="450" ry="350" fill="url(#glowCyan)" filter="url(#blurHeavy)" opacity="0.4"/>
  <ellipse cx="1100" cy="100" rx="400" ry="300" fill="url(#glowGold)" filter="url(#blurHeavy)" opacity="0.3"/>

  <!-- Secondary color pops -->
  <ellipse cx="700" cy="350" rx="250" ry="200" fill="url(#glowViolet)" filter="url(#blurMedium)" opacity="0.5"/>
  <ellipse cx="1350" cy="500" rx="300" ry="250" fill="url(#glowBlue)" filter="url(#blurMedium)" opacity="0.4"/>
  <ellipse cx="500" cy="700" rx="200" ry="180" fill="url(#glowGold)" filter="url(#blurMedium)" opacity="0.35"/>

  <!-- ═══════════ LAYER 2: GRID SYSTEMS ═══════════ -->
  <rect width="1920" height="1080" fill="url(#gridCoarse)" opacity="0.8"/>
  <rect width="1920" height="1080" fill="url(#gridFine)" opacity="0.5"/>

  <!-- Perspective grid floor effect -->
  <g opacity="0.04" transform="translate(960,540)">
    <line x1="-960" y1="200" x2="0" y2="0" stroke="#6366f1" stroke-width="0.8"/>
    <line x1="-800" y1="540" x2="0" y2="0" stroke="#6366f1" stroke-width="0.6"/>
    <line x1="-400" y1="540" x2="0" y2="0" stroke="#6366f1" stroke-width="0.6"/>
    <line x1="960" y1="200" x2="0" y2="0" stroke="#6366f1" stroke-width="0.8"/>
    <line x1="800" y1="540" x2="0" y2="0" stroke="#6366f1" stroke-width="0.6"/>
    <line x1="400" y1="540" x2="0" y2="0" stroke="#6366f1" stroke-width="0.6"/>
  </g>

  <!-- ═══════════ LAYER 3: BLURRED GAME SCENE PANELS ═══════════ -->
  <!-- Simulated blurred game scene fragments — overlapping rectangles with warped edges -->

  <!-- Panel 1: Top-left — warm scene fragment -->
  <g transform="translate(80, 120) rotate(-8, 200, 150)" opacity="0.07" filter="url(#blurSoft)">
    <rect width="420" height="280" rx="12" fill="url(#panelGrad3)" stroke="#f59e0b" stroke-opacity="0.15" stroke-width="1"/>
    <!-- Fake scene content -->
    <rect x="20" y="20" width="160" height="90" rx="4" fill="#f59e0b" opacity="0.08"/>
    <rect x="200" y="30" width="180" height="70" rx="4" fill="#ea580c" opacity="0.06"/>
    <rect x="30" y="130" width="350" height="4" rx="2" fill="#fbbf24" opacity="0.1"/>
    <rect x="30" y="150" width="280" height="4" rx="2" fill="#f59e0b" opacity="0.07"/>
    <rect x="30" y="170" width="320" height="4" rx="2" fill="#fbbf24" opacity="0.05"/>
    <circle cx="350" cy="220" r="30" fill="#f59e0b" opacity="0.06"/>
  </g>

  <!-- Panel 2: Mid-right — purple/blue scene fragment -->
  <g transform="translate(1300, 200) rotate(5, 200, 150)" opacity="0.06" filter="url(#blurSoft)">
    <rect width="480" height="320" rx="12" fill="url(#panelGrad2)" stroke="#a855f7" stroke-opacity="0.12" stroke-width="1"/>
    <rect x="25" y="25" width="200" height="120" rx="6" fill="#a855f7" opacity="0.06"/>
    <rect x="245" y="35" width="200" height="100" rx="6" fill="#7c3aed" opacity="0.05"/>
    <rect x="25" y="165" width="420" height="3" rx="1.5" fill="#c084fc" opacity="0.08"/>
    <rect x="25" y="185" width="350" height="3" rx="1.5" fill="#a855f7" opacity="0.06"/>
    <circle cx="400" cy="260" r="35" fill="#8b5cf6" opacity="0.05"/>
    <rect x="25" y="240" width="180" height="50" rx="4" fill="#7c3aed" opacity="0.04"/>
  </g>

  <!-- Panel 3: Bottom-center — cyan/blue scene fragment -->
  <g transform="translate(650, 650) rotate(-3, 250, 150)" opacity="0.05" filter="url(#blurSoft)">
    <rect width="550" height="300" rx="12" fill="url(#panelGrad1)" stroke="#22d3ee" stroke-opacity="0.1" stroke-width="1"/>
    <rect x="20" y="20" width="240" height="130" rx="6" fill="#22d3ee" opacity="0.05"/>
    <rect x="280" y="30" width="240" height="110" rx="6" fill="#0891b2" opacity="0.04"/>
    <rect x="20" y="170" width="500" height="3" rx="1.5" fill="#22d3ee" opacity="0.07"/>
    <rect x="20" y="190" width="400" height="3" rx="1.5" fill="#06b6d4" opacity="0.05"/>
    <rect x="20" y="210" width="300" height="3" rx="1.5" fill="#22d3ee" opacity="0.04"/>
  </g>

  <!-- Panel 4: Small floating panel top-center -->
  <g transform="translate(780, 60) rotate(12, 130, 80)" opacity="0.04" filter="url(#blurSoft)">
    <rect width="260" height="160" rx="8" fill="url(#panelGrad2)" stroke="#c084fc" stroke-opacity="0.1" stroke-width="0.8"/>
    <rect x="15" y="15" width="100" height="60" rx="4" fill="#c084fc" opacity="0.06"/>
    <rect x="130" y="20" width="110" height="50" rx="4" fill="#a855f7" opacity="0.05"/>
    <rect x="15" y="90" width="230" height="3" rx="1.5" fill="#c084fc" opacity="0.07"/>
    <rect x="15" y="110" width="180" height="3" rx="1.5" fill="#a855f7" opacity="0.05"/>
  </g>

  <!-- Panel 5: Bottom-left fragment -->
  <g transform="translate(50, 750) rotate(6, 180, 100)" opacity="0.04" filter="url(#blurSoft)">
    <rect width="360" height="200" rx="10" fill="url(#panelGrad3)" stroke="#fbbf24" stroke-opacity="0.08" stroke-width="0.8"/>
    <rect x="15" y="15" width="150" height="80" rx="4" fill="#fbbf24" opacity="0.05"/>
    <rect x="180" y="20" width="160" height="70" rx="4" fill="#f59e0b" opacity="0.04"/>
    <rect x="15" y="110" width="320" height="3" rx="1.5" fill="#fbbf24" opacity="0.06"/>
  </g>

  <!-- ═══════════ LAYER 4: UI FRAGMENTS ═══════════ -->

  <!-- HUD-style health bar fragment — top left -->
  <g transform="translate(140, 380)" opacity="0.08">
    <rect width="200" height="12" rx="6" fill="#1e293b" stroke="#334155" stroke-width="0.5"/>
    <rect x="2" y="2" width="140" height="8" rx="4" fill="url(#streakOrange)"/>
    <rect x="2" y="2" width="140" height="8" rx="4" fill="#f59e0b" opacity="0.3"/>
    <!-- Small pip marks -->
    <rect x="50" y="0" width="1" height="12" fill="#475569" opacity="0.3"/>
    <rect x="100" y="0" width="1" height="12" fill="#475569" opacity="0.3"/>
    <rect x="150" y="0" width="1" height="12" fill="#475569" opacity="0.3"/>
  </g>

  <!-- XP bar fragment — bottom right -->
  <g transform="translate(1500, 780)" opacity="0.07">
    <rect width="280" height="10" rx="5" fill="#1e293b" stroke="#334155" stroke-width="0.5"/>
    <rect x="2" y="2" width="180" height="6" rx="3" fill="#a855f7" opacity="0.4"/>
    <rect x="2" y="2" width="180" height="6" rx="3" fill="url(#streakPurple)"/>
  </g>

  <!-- Mini-map outline fragment — top right -->
  <g transform="translate(1620, 100)" opacity="0.05">
    <rect width="180" height="180" rx="8" fill="none" stroke="#22d3ee" stroke-width="1"/>
    <rect x="8" y="8" width="164" height="164" rx="4" fill="#0891b2" opacity="0.04"/>
    <!-- Map dots -->
    <circle cx="50" cy="60" r="3" fill="#22d3ee" opacity="0.2"/>
    <circle cx="120" cy="90" r="3" fill="#f59e0b" opacity="0.15"/>
    <circle cx="80" cy="130" r="2" fill="#a855f7" opacity="0.15"/>
    <circle cx="140" cy="50" r="2.5" fill="#22d3ee" opacity="0.12"/>
    <!-- Crosshair at center -->
    <line x1="80" y1="85" x2="100" y2="85" stroke="#22d3ee" stroke-width="0.8" opacity="0.3"/>
    <line x1="90" y1="75" x2="90" y2="95" stroke="#22d3ee" stroke-width="0.8" opacity="0.3"/>
  </g>

  <!-- Score/stat box — mid left -->
  <g transform="translate(60, 550)" opacity="0.06">
    <rect width="160" height="90" rx="6" fill="#0f172a" stroke="#6366f1" stroke-opacity="0.15" stroke-width="0.8"/>
    <rect x="10" y="10" width="60" height="6" rx="3" fill="#6366f1" opacity="0.2"/>
    <rect x="10" y="25" width="100" height="4" rx="2" fill="#94a3b8" opacity="0.08"/>
    <rect x="10" y="38" width="80" height="4" rx="2" fill="#94a3b8" opacity="0.06"/>
    <rect x="10" y="55" width="140" height="24" rx="4" fill="#6366f1" opacity="0.06"/>
    <rect x="20" y="62" width="50" height="8" rx="2" fill="#a5b4fc" opacity="0.1"/>
  </g>

  <!-- Inventory slot grid — bottom center-left -->
  <g transform="translate(350, 870)" opacity="0.04">
    <rect x="0" y="0" width="48" height="48" rx="4" fill="#1e293b" stroke="#334155" stroke-width="0.5"/>
    <rect x="56" y="0" width="48" height="48" rx="4" fill="#1e293b" stroke="#334155" stroke-width="0.5"/>
    <rect x="112" y="0" width="48" height="48" rx="4" fill="#1e293b" stroke="#6366f1" stroke-opacity="0.3" stroke-width="0.8"/>
    <rect x="168" y="0" width="48" height="48" rx="4" fill="#1e293b" stroke="#334155" stroke-width="0.5"/>
    <rect x="224" y="0" width="48" height="48" rx="4" fill="#1e293b" stroke="#334155" stroke-width="0.5"/>
    <!-- Item glows -->
    <circle cx="136" cy="24" r="12" fill="#6366f1" opacity="0.1"/>
    <circle cx="24" cy="24" r="10" fill="#f59e0b" opacity="0.06"/>
  </g>

  <!-- Chat/notification fragment — right side -->
  <g transform="translate(1580, 500)" opacity="0.05">
    <rect width="220" height="140" rx="8" fill="#0f172a" stroke="#475569" stroke-opacity="0.1" stroke-width="0.5"/>
    <rect x="12" y="12" width="120" height="6" rx="3" fill="#64748b" opacity="0.15"/>
    <rect x="12" y="28" width="180" height="4" rx="2" fill="#475569" opacity="0.1"/>
    <rect x="12" y="42" width="160" height="4" rx="2" fill="#475569" opacity="0.08"/>
    <rect x="12" y="60" width="90" height="6" rx="3" fill="#a855f7" opacity="0.1"/>
    <rect x="12" y="76" width="190" height="4" rx="2" fill="#475569" opacity="0.08"/>
    <rect x="12" y="96" width="80" height="6" rx="3" fill="#22d3ee" opacity="0.1"/>
    <rect x="12" y="112" width="170" height="4" rx="2" fill="#475569" opacity="0.06"/>
  </g>

  <!-- ═══════════ LAYER 5: CHARACTER SILHOUETTES ═══════════ -->

  <!-- Silhouette 1: Standing figure — left-center -->
  <g transform="translate(280, 300)" opacity="0.04" filter="url(#blurTiny)">
    <path d="M40,0 C50,-5 55,5 50,15 C48,20 45,22 40,22 C35,22 32,20 30,15 C25,5 30,-5 40,0Z" fill="#c084fc"/>
    <path d="M30,22 L25,80 L20,140 L30,140 L35,90 L40,90 L45,140 L55,140 L50,80 L45,22Z" fill="#a855f7"/>
    <path d="M25,35 L5,75 L12,78 L30,45Z" fill="#8b5cf6"/>
    <path d="M50,35 L70,70 L63,73 L47,42Z" fill="#8b5cf6"/>
  </g>

  <!-- Silhouette 2: Action pose — right area -->
  <g transform="translate(1450, 350) scale(1.2)" opacity="0.035" filter="url(#blurTiny)">
    <path d="M35,0 C45,-3 48,8 44,16 C42,20 38,21 35,21 C32,21 28,20 26,16 C22,8 25,-3 35,0Z" fill="#f59e0b"/>
    <path d="M26,21 L20,50 L10,100 L22,100 L30,60 L35,60 L38,100 L50,100 L44,50 L38,21Z" fill="#ea580c"/>
    <path d="M20,30 L-5,55 L2,60 L24,40Z" fill="#f59e0b"/>
    <path d="M44,28 L75,50 L70,56 L40,38Z" fill="#f59e0b"/>
  </g>

  <!-- Silhouette 3: Crouching/aiming — bottom right -->
  <g transform="translate(1300, 700) scale(0.9)" opacity="0.03" filter="url(#blurSoft)">
    <path d="M30,5 C38,0 42,8 38,15 C36,18 33,20 30,20 C27,20 24,18 22,15 C18,8 22,0 30,5Z" fill="#22d3ee"/>
    <path d="M22,20 L18,45 L15,80 L25,80 L28,50 L32,50 L33,80 L43,80 L40,45 L36,20Z" fill="#0891b2"/>
    <path d="M36,28 L70,35 L68,42 L34,38Z" fill="#22d3ee"/>
    <path d="M22,30 L10,55 L17,58 L25,38Z" fill="#06b6d4"/>
  </g>

  <!-- ═══════════ LAYER 6: LIGHT STREAKS ═══════════ -->

  <!-- Diagonal light streaks — motion blur effect -->
  <g opacity="0.6">
    <rect x="100" y="200" width="900" height="2.5" rx="1.2" fill="url(#streakOrange)" transform="rotate(-15, 550, 201)" filter="url(#motionBlurH)"/>
    <rect x="300" y="350" width="700" height="2" rx="1" fill="url(#streakPurple)" transform="rotate(-12, 650, 351)" filter="url(#motionBlurH)"/>
    <rect x="800" y="150" width="800" height="1.8" rx="0.9" fill="url(#streakCyan)" transform="rotate(-18, 1200, 151)" filter="url(#motionBlurH)"/>
    <rect x="150" y="600" width="600" height="2" rx="1" fill="url(#streakGold)" transform="rotate(-10, 450, 601)" filter="url(#motionBlurH)"/>
    <rect x="1000" y="500" width="750" height="1.5" rx="0.75" fill="url(#streakOrange)" transform="rotate(-20, 1375, 501)" filter="url(#motionBlurH)"/>
    <rect x="500" y="750" width="900" height="2" rx="1" fill="url(#streakPurple)" transform="rotate(-8, 950, 751)" filter="url(#motionBlurH)"/>
    <rect x="1200" y="300" width="600" height="1.5" rx="0.75" fill="url(#streakCyan)" transform="rotate(-25, 1500, 301)" filter="url(#motionBlurH)"/>
  </g>

  <!-- ═══════════ LAYER 7: GLOWING PARTICLES ═══════════ -->

  <!-- Large particles with glow -->
  <circle cx="320" cy="180" r="4" fill="#f59e0b" opacity="0.25" filter="url(#glowFilter)"/>
  <circle cx="780" cy="320" r="3.5" fill="#a855f7" opacity="0.22" filter="url(#glowFilter)"/>
  <circle cx="1500" cy="250" r="3" fill="#22d3ee" opacity="0.2" filter="url(#glowFilter)"/>
  <circle cx="1100" cy="450" r="4" fill="#f59e0b" opacity="0.18" filter="url(#glowFilter)"/>
  <circle cx="600" cy="680" r="3.5" fill="#c084fc" opacity="0.2" filter="url(#glowFilter)"/>
  <circle cx="1700" cy="600" r="3" fill="#fbbf24" opacity="0.15" filter="url(#glowFilter)"/>

  <!-- Medium particles -->
  <circle cx="200" cy="400" r="2.5" fill="#f59e0b" opacity="0.2"/>
  <circle cx="450" cy="150" r="2" fill="#a855f7" opacity="0.18"/>
  <circle cx="1050" cy="200" r="2.5" fill="#22d3ee" opacity="0.16"/>
  <circle cx="1350" cy="650" r="2" fill="#f59e0b" opacity="0.15"/>
  <circle cx="900" cy="850" r="2.5" fill="#c084fc" opacity="0.14"/>
  <circle cx="1600" cy="400" r="2" fill="#22d3ee" opacity="0.17"/>
  <circle cx="400" cy="500" r="2" fill="#fbbf24" opacity="0.13"/>
  <circle cx="1200" cy="150" r="2" fill="#a855f7" opacity="0.15"/>
  <circle cx="700" cy="950" r="2.5" fill="#f59e0b" opacity="0.12"/>

  <!-- Small particles (star-like) -->
  <circle cx="150" cy="100" r="1.2" fill="#f59e0b" opacity="0.2"/>
  <circle cx="380" cy="280" r="1" fill="#22d3ee" opacity="0.18"/>
  <circle cx="550" cy="420" r="1.3" fill="#a855f7" opacity="0.15"/>
  <circle cx="720" cy="120" r="1" fill="#fbbf24" opacity="0.2"/>
  <circle cx="850" cy="550" r="1.2" fill="#22d3ee" opacity="0.14"/>
  <circle cx="1000" cy="350" r="1" fill="#f59e0b" opacity="0.16"/>
  <circle cx="1150" cy="700" r="1.3" fill="#c084fc" opacity="0.13"/>
  <circle cx="1280" cy="100" r="1" fill="#22d3ee" opacity="0.18"/>
  <circle cx="1420" cy="450" r="1.2" fill="#f59e0b" opacity="0.12"/>
  <circle cx="1550" cy="150" r="1" fill="#a855f7" opacity="0.16"/>
  <circle cx="1680" cy="700" r="1.3" fill="#fbbf24" opacity="0.14"/>
  <circle cx="1800" cy="300" r="1" fill="#22d3ee" opacity="0.15"/>
  <circle cx="100" cy="650" r="1.2" fill="#f59e0b" opacity="0.13"/>
  <circle cx="250" cy="900" r="1" fill="#c084fc" opacity="0.15"/>
  <circle cx="1850" cy="850" r="1.2" fill="#f59e0b" opacity="0.11"/>
  <circle cx="650" cy="50" r="1" fill="#a855f7" opacity="0.17"/>
  <circle cx="1750" cy="500" r="1.3" fill="#22d3ee" opacity="0.12"/>
  <circle cx="500" cy="800" r="1" fill="#fbbf24" opacity="0.14"/>
  <circle cx="300" cy="700" r="1.2" fill="#22d3ee" opacity="0.1"/>
  <circle cx="1100" cy="900" r="1" fill="#a855f7" opacity="0.13"/>

  <!-- Tiny dust particles -->
  <circle cx="80" cy="300" r="0.7" fill="#fff" opacity="0.08"/>
  <circle cx="260" cy="500" r="0.6" fill="#fff" opacity="0.07"/>
  <circle cx="440" cy="350" r="0.8" fill="#fff" opacity="0.06"/>
  <circle cx="620" cy="250" r="0.6" fill="#fff" opacity="0.08"/>
  <circle cx="800" cy="700" r="0.7" fill="#fff" opacity="0.05"/>
  <circle cx="980" cy="500" r="0.6" fill="#fff" opacity="0.07"/>
  <circle cx="1160" cy="300" r="0.8" fill="#fff" opacity="0.06"/>
  <circle cx="1340" cy="800" r="0.6" fill="#fff" opacity="0.07"/>
  <circle cx="1520" cy="350" r="0.7" fill="#fff" opacity="0.05"/>
  <circle cx="1700" cy="200" r="0.6" fill="#fff" opacity="0.08"/>
  <circle cx="1880" cy="600" r="0.8" fill="#fff" opacity="0.06"/>

  <!-- ═══════════ LAYER 8: GEOMETRIC SHAPES ═══════════ -->

  <!-- Hexagons -->
  <polygon points="960,80 1015,112 1015,176 960,208 905,176 905,112" fill="none" stroke="#6366f1" stroke-opacity="0.06" stroke-width="1.2" transform="rotate(15, 960, 144)"/>
  <polygon points="1520,320 1570,349 1570,407 1520,436 1470,407 1470,349" fill="none" stroke="#a855f7" stroke-opacity="0.05" stroke-width="1" transform="rotate(-10, 1520, 378)"/>
  <polygon points="280,620 320,643 320,689 280,712 240,689 240,643" fill="none" stroke="#22d3ee" stroke-opacity="0.05" stroke-width="1" transform="rotate(20, 280, 666)"/>
  <polygon points="1750,650 1785,670 1785,710 1750,730 1715,710 1715,670" fill="none" stroke="#f59e0b" stroke-opacity="0.04" stroke-width="0.8" transform="rotate(-15, 1750, 690)"/>
  <polygon points="600,900 630,917 630,951 600,968 570,951 570,917" fill="none" stroke="#c084fc" stroke-opacity="0.04" stroke-width="0.8"/>

  <!-- Diamonds -->
  <rect x="1700" y="150" width="45" height="45" fill="none" stroke="#f59e0b" stroke-opacity="0.07" stroke-width="1" transform="rotate(45, 1722, 172)"/>
  <rect x="130" y="350" width="35" height="35" fill="none" stroke="#a855f7" stroke-opacity="0.06" stroke-width="0.8" transform="rotate(45, 147, 367)"/>
  <rect x="1100" y="830" width="30" height="30" fill="none" stroke="#22d3ee" stroke-opacity="0.05" stroke-width="0.8" transform="rotate(45, 1115, 845)"/>
  <rect x="800" y="50" width="25" height="25" fill="none" stroke="#fbbf24" stroke-opacity="0.05" stroke-width="0.8" transform="rotate(45, 812, 62)"/>

  <!-- Triangles -->
  <polygon points="420,100 450,155 390,155" fill="none" stroke="#f59e0b" stroke-opacity="0.05" stroke-width="0.8" transform="rotate(10, 420, 130)"/>
  <polygon points="1380,850 1415,915 1345,915" fill="none" stroke="#22d3ee" stroke-opacity="0.04" stroke-width="0.8" transform="rotate(-5, 1380, 885)"/>

  <!-- Circles -->
  <circle cx="1250" cy="180" r="40" fill="none" stroke="#a855f7" stroke-opacity="0.04" stroke-width="0.8"/>
  <circle cx="350" cy="800" r="55" fill="none" stroke="#f59e0b" stroke-opacity="0.03" stroke-width="0.8"/>
  <circle cx="1650" cy="450" r="30" fill="none" stroke="#22d3ee" stroke-opacity="0.04" stroke-width="0.6"/>

  <!-- ═══════════ LAYER 9: GAMING ICONS (ABSTRACT) ═══════════ -->

  <!-- Controller silhouette — bottom right -->
  <g transform="translate(1620, 860) scale(1.3)" opacity="0.035">
    <path d="M10,25 C10,12 20,5 35,5 L65,5 C80,5 90,12 90,25 L90,40 C90,50 80,55 70,55 L60,55 C55,55 50,60 45,65 L55,65 C60,60 65,55 70,55" fill="none" stroke="#f59e0b" stroke-width="1.5"/>
    <rect x="20" y="15" width="12" height="3" rx="1.5" fill="#f59e0b" opacity="0.3"/>
    <rect x="25" y="10" width="3" height="12" rx="1.5" fill="#f59e0b" opacity="0.3"/>
    <circle cx="68" cy="20" r="3" fill="none" stroke="#f59e0b" stroke-width="1" opacity="0.3"/>
    <circle cx="75" cy="27" r="3" fill="none" stroke="#f59e0b" stroke-width="1" opacity="0.3"/>
    <circle cx="61" cy="27" r="3" fill="none" stroke="#f59e0b" stroke-width="1" opacity="0.3"/>
    <circle cx="68" cy="34" r="3" fill="none" stroke="#f59e0b" stroke-width="1" opacity="0.3"/>
  </g>

  <!-- Crosshair — center right -->
  <g transform="translate(1400, 550)" opacity="0.04" stroke="#22d3ee" stroke-width="1.2" fill="none">
    <circle cx="0" cy="0" r="25"/>
    <circle cx="0" cy="0" r="12"/>
    <line x1="-35" y1="0" x2="-15" y2="0"/>
    <line x1="15" y1="0" x2="35" y2="0"/>
    <line x1="0" y1="-35" x2="0" y2="-15"/>
    <line x1="0" y1="15" x2="0" y2="35"/>
    <circle cx="0" cy="0" r="2" fill="#22d3ee" opacity="0.3"/>
  </g>

  <!-- Shield/badge icon — left -->
  <g transform="translate(170, 650)" opacity="0.03" stroke="#a855f7" stroke-width="1.2" fill="none">
    <path d="M0,-30 L25,-18 L25,10 C25,25 0,40 0,40 C0,40 -25,25 -25,10 L-25,-18Z"/>
    <path d="M0,-15 L12,-8 L12,5 C12,14 0,22 0,22 C0,22 -12,14 -12,5 L-12,-8Z" opacity="0.4"/>
  </g>

  <!-- Star/power-up — top center -->
  <g transform="translate(960, 150)" opacity="0.04" fill="#fbbf24">
    <polygon points="0,-20 5,-7 18,-7 8,2 12,16 0,8 -12,16 -8,2 -18,-7 -5,-7" stroke="#fbbf24" stroke-width="0.5" fill="none"/>
  </g>

  <!-- Sword icon — bottom left area -->
  <g transform="translate(500, 920) rotate(35)" opacity="0.03" stroke="#f59e0b" stroke-width="1" fill="none">
    <line x1="0" y1="0" x2="0" y2="-60"/>
    <line x1="-12" y1="-10" x2="12" y2="-10"/>
    <rect x="-3" y="-5" width="6" height="10" rx="1"/>
  </g>

  <!-- ═══════════ LAYER 10: DISTORTION & WARP ACCENTS ═══════════ -->

  <!-- Warped edge panels -->
  <g opacity="0.03" filter="url(#distort1)">
    <rect x="100" y="400" width="300" height="150" rx="8" fill="none" stroke="#6366f1" stroke-width="0.8" transform="rotate(-5, 250, 475)"/>
  </g>
  <g opacity="0.025" filter="url(#distort1)">
    <rect x="1400" y="600" width="350" height="180" rx="8" fill="none" stroke="#a855f7" stroke-width="0.8" transform="rotate(3, 1575, 690)"/>
  </g>

  <!-- Chromatic aberration accent lines -->
  <g opacity="0.04" filter="url(#chromaticAberr)">
    <line x1="200" y1="280" x2="600" y2="260" stroke="#fff" stroke-width="1"/>
    <line x1="1300" y1="400" x2="1700" y2="380" stroke="#fff" stroke-width="0.8"/>
  </g>

  <!-- ═══════════ LAYER 11: SCANLINES & NOISE ═══════════ -->
  <rect width="1920" height="1080" fill="url(#scanlines)"/>
  <rect width="1920" height="1080" fill="url(#noise)"/>

  <!-- ═══════════ LAYER 12: VIGNETTE ═══════════ -->
  <rect width="1920" height="1080" fill="url(#vignette)"/>

  <!-- Extra edge darkening -->
  <rect width="1920" height="80" fill="url(#bgBase)" opacity="0.5"/>
  <rect y="1000" width="1920" height="80" fill="url(#bgBase)" opacity="0.6"/>
  <rect width="60" height="1080" fill="url(#bgBase)" opacity="0.4"/>
  <rect x="1860" width="60" height="1080" fill="url(#bgBase)" opacity="0.4"/>
</svg>
