<svg xmlns="http://www.w3.org/2000/svg" viewBox="0 0 1920 1080" width="1920" height="1080">
  <defs>
    <!-- Base gradient: deep dark warm -->
    <radialGradient id="lbg" cx="40%" cy="45%" r="75%">
      <stop offset="0%" stop-color="#1a1008"/>
      <stop offset="40%" stop-color="#0d0a04"/>
      <stop offset="100%" stop-color="#050302"/>
    </radialGradient>

    <!-- Warm ambient glows -->
    <radialGradient id="warmGlow1" cx="50%" cy="50%" r="50%">
      <stop offset="0%" stop-color="#f59e0b" stop-opacity="0.12"/>
      <stop offset="50%" stop-color="#b45309" stop-opacity="0.04"/>
      <stop offset="100%" stop-color="#78350f" stop-opacity="0"/>
    </radialGradient>
    <radialGradient id="warmGlow2" cx="50%" cy="50%" r="50%">
      <stop offset="0%" stop-color="#fbbf24" stop-opacity="0.09"/>
      <stop offset="60%" stop-color="#92400e" stop-opacity="0.03"/>
      <stop offset="100%" stop-color="#78350f" stop-opacity="0"/>
    </radialGradient>
    <radialGradient id="warmGlow3" cx="50%" cy="50%" r="50%">
      <stop offset="0%" stop-color="#d97706" stop-opacity="0.08"/>
      <stop offset="100%" stop-color="#78350f" stop-opacity="0"/>
    </radialGradient>
    <radialGradient id="subtleGreen" cx="50%" cy="50%" r="50%">
      <stop offset="0%" stop-color="#166534" stop-opacity="0.06"/>
      <stop offset="100%" stop-color="#14532d" stop-opacity="0"/>
    </radialGradient>

    <!-- Bokeh circle gradients (warm tones) -->
    <radialGradient id="bokeh1" cx="50%" cy="50%" r="50%">
      <stop offset="0%" stop-color="#fbbf24" stop-opacity="0.06"/>
      <stop offset="40%" stop-color="#f59e0b" stop-opacity="0.03"/>
      <stop offset="70%" stop-color="#b45309" stop-opacity="0.015"/>
      <stop offset="100%" stop-color="#78350f" stop-opacity="0"/>
    </radialGradient>
    <radialGradient id="bokeh2" cx="50%" cy="50%" r="50%">
      <stop offset="0%" stop-color="#d97706" stop-opacity="0.05"/>
      <stop offset="50%" stop-color="#92400e" stop-opacity="0.02"/>
      <stop offset="100%" stop-color="#78350f" stop-opacity="0"/>
    </radialGradient>
    <radialGradient id="bokeh3" cx="50%" cy="50%" r="50%">
      <stop offset="0%" stop-color="#fcd34d" stop-opacity="0.04"/>
      <stop offset="60%" stop-color="#b45309" stop-opacity="0.015"/>
      <stop offset="100%" stop-color="#78350f" stop-opacity="0"/>
    </radialGradient>
    <radialGradient id="bokehGreen" cx="50%" cy="50%" r="50%">
      <stop offset="0%" stop-color="#4ade80" stop-opacity="0.04"/>
      <stop offset="50%" stop-color="#166534" stop-opacity="0.015"/>
      <stop offset="100%" stop-color="#14532d" stop-opacity="0"/>
    </radialGradient>
    <radialGradient id="bokehAmber" cx="50%" cy="50%" r="50%">
      <stop offset="0%" stop-color="#fde68a" stop-opacity="0.035"/>
      <stop offset="100%" stop-color="#92400e" stop-opacity="0"/>
    </radialGradient>

    <!-- Ring gradient for the repeating circles -->
    <radialGradient id="ring1" cx="50%" cy="50%" r="50%">
      <stop offset="60%" stop-color="transparent"/>
      <stop offset="75%" stop-color="#b45309" stop-opacity="0.04"/>
      <stop offset="90%" stop-color="#d97706" stop-opacity="0.025"/>
      <stop offset="100%" stop-color="transparent"/>
    </radialGradient>
    <radialGradient id="ring2" cx="50%" cy="50%" r="50%">
      <stop offset="55%" stop-color="transparent"/>
      <stop offset="72%" stop-color="#92400e" stop-opacity="0.03"/>
      <stop offset="88%" stop-color="#b45309" stop-opacity="0.018"/>
      <stop offset="100%" stop-color="transparent"/>
    </radialGradient>

    <!-- Vignette -->
    <radialGradient id="lVignette" cx="40%" cy="45%" r="65%">
      <stop offset="0%" stop-color="transparent"/>
      <stop offset="60%" stop-color="transparent"/>
      <stop offset="100%" stop-color="#000000" stop-opacity="0.7"/>
    </radialGradient>

    <!-- Filters -->
    <filter id="lBlurHeavy"><feGaussianBlur stdDeviation="80"/></filter>
    <filter id="lBlurMed"><feGaussianBlur stdDeviation="40"/></filter>
    <filter id="lBlurSoft"><feGaussianBlur stdDeviation="18"/></filter>
    <filter id="lBlurLight"><feGaussianBlur stdDeviation="8"/></filter>
    <filter id="lBlurTiny"><feGaussianBlur stdDeviation="3"/></filter>

    <!-- Noise texture -->
    <filter id="lNoise">
      <feTurbulence type="fractalNoise" baseFrequency="0.65" numOctaves="4" stitchTiles="stitch" result="noise"/>
      <feColorMatrix type="saturate" values="0" in="noise" result="grayNoise"/>
      <feBlend in="SourceGraphic" in2="grayNoise" mode="multiply"/>
    </filter>
    <pattern id="lGrain" width="200" height="200" patternUnits="userSpaceOnUse">
      <circle cx="15" cy="12" r="0.5" fill="#fff" opacity="0.015"/>
      <circle cx="52" cy="38" r="0.4" fill="#fff" opacity="0.012"/>
      <circle cx="88" cy="7" r="0.6" fill="#fff" opacity="0.018"/>
      <circle cx="123" cy="55" r="0.4" fill="#fff" opacity="0.01"/>
      <circle cx="170" cy="22" r="0.5" fill="#fff" opacity="0.015"/>
      <circle cx="35" cy="78" r="0.4" fill="#fff" opacity="0.012"/>
      <circle cx="75" cy="95" r="0.5" fill="#fff" opacity="0.016"/>
      <circle cx="142" cy="82" r="0.3" fill="#fff" opacity="0.01"/>
      <circle cx="190" cy="70" r="0.5" fill="#fff" opacity="0.014"/>
      <circle cx="8" cy="130" r="0.4" fill="#fff" opacity="0.012"/>
      <circle cx="60" cy="145" r="0.5" fill="#fff" opacity="0.015"/>
      <circle cx="110" cy="125" r="0.4" fill="#fff" opacity="0.011"/>
      <circle cx="155" cy="150" r="0.6" fill="#fff" opacity="0.013"/>
      <circle cx="185" cy="135" r="0.3" fill="#fff" opacity="0.01"/>
      <circle cx="28" cy="175" r="0.5" fill="#fff" opacity="0.014"/>
      <circle cx="95" cy="185" r="0.4" fill="#fff" opacity="0.012"/>
      <circle cx="140" cy="190" r="0.5" fill="#fff" opacity="0.016"/>
      <circle cx="178" cy="168" r="0.4" fill="#fff" opacity="0.011"/>
    </pattern>
  </defs>

  <!-- ═══ LAYER 0: Base ═══ -->
  <rect width="1920" height="1080" fill="url(#lbg)"/>

  <!-- ═══ LAYER 1: Deep warm atmospheric washes ═══ -->
  <ellipse cx="500" cy="350" rx="700" ry="500" fill="url(#warmGlow1)" filter="url(#lBlurHeavy)"/>
  <ellipse cx="1500" cy="700" rx="600" ry="450" fill="url(#warmGlow2)" filter="url(#lBlurHeavy)"/>
  <ellipse cx="900" cy="800" rx="500" ry="400" fill="url(#warmGlow3)" filter="url(#lBlurHeavy)" opacity="0.6"/>
  <ellipse cx="300" cy="700" rx="400" ry="350" fill="url(#subtleGreen)" filter="url(#lBlurHeavy)" opacity="0.5"/>
  <ellipse cx="1700" cy="200" rx="450" ry="350" fill="url(#warmGlow1)" filter="url(#lBlurHeavy)" opacity="0.4"/>
  <ellipse cx="960" cy="200" rx="500" ry="300" fill="url(#warmGlow2)" filter="url(#lBlurHeavy)" opacity="0.3"/>

  <!-- ═══ LAYER 2: Repeating circle grid (bottle-bottom / depth pattern) ═══ -->
  <!-- Arranged in a perspective grid receding from lower-left to upper-right -->

  <!-- Row 1 (foreground, large, more visible — bottom-left) -->
  <g opacity="0.7">
    <circle cx="80" cy="920" r="65" fill="url(#ring1)" filter="url(#lBlurTiny)"/>
    <circle cx="80" cy="920" r="60" fill="none" stroke="#92400e" stroke-opacity="0.04" stroke-width="1.5"/>
    <circle cx="80" cy="920" r="30" fill="none" stroke="#b45309" stroke-opacity="0.025" stroke-width="1"/>
    <circle cx="80" cy="920" r="6" fill="#78350f" opacity="0.06"/>
  </g>
  <g opacity="0.65">
    <circle cx="220" cy="900" r="60" fill="url(#ring1)" filter="url(#lBlurTiny)"/>
    <circle cx="220" cy="900" r="55" fill="none" stroke="#92400e" stroke-opacity="0.035" stroke-width="1.5"/>
    <circle cx="220" cy="900" r="28" fill="none" stroke="#b45309" stroke-opacity="0.02" stroke-width="1"/>
    <circle cx="220" cy="900" r="5" fill="#78350f" opacity="0.05"/>
  </g>
  <g opacity="0.6">
    <circle cx="355" cy="875" r="55" fill="url(#ring1)" filter="url(#lBlurTiny)"/>
    <circle cx="355" cy="875" r="50" fill="none" stroke="#92400e" stroke-opacity="0.035" stroke-width="1.2"/>
    <circle cx="355" cy="875" r="25" fill="none" stroke="#b45309" stroke-opacity="0.02" stroke-width="1"/>
    <circle cx="355" cy="875" r="5" fill="#78350f" opacity="0.05"/>
  </g>
  <g opacity="0.55">
    <circle cx="480" cy="845" r="50" fill="url(#ring2)" filter="url(#lBlurTiny)"/>
    <circle cx="480" cy="845" r="46" fill="none" stroke="#92400e" stroke-opacity="0.03" stroke-width="1.2"/>
    <circle cx="480" cy="845" r="22" fill="none" stroke="#b45309" stroke-opacity="0.018" stroke-width="0.8"/>
    <circle cx="480" cy="845" r="4" fill="#78350f" opacity="0.04"/>
  </g>

  <!-- Row 2 (slightly higher, smaller) -->
  <g opacity="0.5">
    <circle cx="130" cy="790" r="48" fill="url(#ring2)" filter="url(#lBlurTiny)"/>
    <circle cx="130" cy="790" r="44" fill="none" stroke="#92400e" stroke-opacity="0.03" stroke-width="1"/>
    <circle cx="130" cy="790" r="22" fill="none" stroke="#b45309" stroke-opacity="0.018" stroke-width="0.8"/>
    <circle cx="130" cy="790" r="4" fill="#78350f" opacity="0.04"/>
  </g>
  <g opacity="0.48">
    <circle cx="265" cy="770" r="45" fill="url(#ring2)" filter="url(#lBlurTiny)"/>
    <circle cx="265" cy="770" r="41" fill="none" stroke="#92400e" stroke-opacity="0.028" stroke-width="1"/>
    <circle cx="265" cy="770" r="20" fill="none" stroke="#b45309" stroke-opacity="0.016" stroke-width="0.8"/>
  </g>
  <g opacity="0.45">
    <circle cx="395" cy="748" r="42" fill="url(#ring2)" filter="url(#lBlurLight)"/>
    <circle cx="395" cy="748" r="38" fill="none" stroke="#92400e" stroke-opacity="0.025" stroke-width="1"/>
    <circle cx="395" cy="748" r="18" fill="none" stroke="#b45309" stroke-opacity="0.015" stroke-width="0.8"/>
  </g>
  <g opacity="0.42">
    <circle cx="520" cy="725" r="38" fill="url(#ring2)" filter="url(#lBlurLight)"/>
    <circle cx="520" cy="725" r="35" fill="none" stroke="#92400e" stroke-opacity="0.022" stroke-width="0.8"/>
    <circle cx="520" cy="725" r="16" fill="none" stroke="#b45309" stroke-opacity="0.014" stroke-width="0.8"/>
  </g>
  <g opacity="0.38">
    <circle cx="638" cy="700" r="35" fill="url(#ring2)" filter="url(#lBlurLight)"/>
    <circle cx="638" cy="700" r="32" fill="none" stroke="#92400e" stroke-opacity="0.02" stroke-width="0.8"/>
  </g>

  <!-- Row 3 (receding, softer) -->
  <g opacity="0.35" filter="url(#lBlurLight)">
    <circle cx="180" cy="670" r="35" fill="url(#ring2)"/>
    <circle cx="180" cy="670" r="32" fill="none" stroke="#92400e" stroke-opacity="0.02" stroke-width="0.8"/>
  </g>
  <g opacity="0.32" filter="url(#lBlurLight)">
    <circle cx="310" cy="650" r="32" fill="url(#ring2)"/>
    <circle cx="310" cy="650" r="29" fill="none" stroke="#92400e" stroke-opacity="0.018" stroke-width="0.8"/>
  </g>
  <g opacity="0.3" filter="url(#lBlurLight)">
    <circle cx="430" cy="630" r="30" fill="url(#ring2)"/>
    <circle cx="430" cy="630" r="27" fill="none" stroke="#92400e" stroke-opacity="0.016" stroke-width="0.8"/>
  </g>
  <g opacity="0.28" filter="url(#lBlurLight)">
    <circle cx="545" cy="612" r="28" fill="url(#ring2)"/>
    <circle cx="545" cy="612" r="25" fill="none" stroke="#92400e" stroke-opacity="0.015" stroke-width="0.8"/>
  </g>
  <g opacity="0.25" filter="url(#lBlurLight)">
    <circle cx="655" cy="595" r="26" fill="url(#ring2)"/>
    <circle cx="655" cy="595" r="23" fill="none" stroke="#92400e" stroke-opacity="0.013" stroke-width="0.6"/>
  </g>
  <g opacity="0.22" filter="url(#lBlurSoft)">
    <circle cx="758" cy="578" r="24" fill="url(#ring2)"/>
    <circle cx="758" cy="578" r="21" fill="none" stroke="#92400e" stroke-opacity="0.012" stroke-width="0.6"/>
  </g>

  <!-- Row 4 (further, blurry) -->
  <g opacity="0.2" filter="url(#lBlurSoft)">
    <circle cx="240" cy="560" r="25" fill="url(#ring2)"/>
    <circle cx="240" cy="560" r="22" fill="none" stroke="#92400e" stroke-opacity="0.012" stroke-width="0.6"/>
  </g>
  <g opacity="0.18" filter="url(#lBlurSoft)">
    <circle cx="360" cy="542" r="23" fill="url(#ring2)"/>
    <circle cx="360" cy="542" r="20" fill="none" stroke="#92400e" stroke-opacity="0.011" stroke-width="0.6"/>
  </g>
  <g opacity="0.16" filter="url(#lBlurSoft)">
    <circle cx="475" cy="525" r="22" fill="url(#ring2)"/>
  </g>
  <g opacity="0.14" filter="url(#lBlurSoft)">
    <circle cx="585" cy="510" r="20" fill="url(#ring2)"/>
  </g>
  <g opacity="0.12" filter="url(#lBlurSoft)">
    <circle cx="690" cy="496" r="18" fill="url(#ring2)"/>
  </g>
  <g opacity="0.1" filter="url(#lBlurSoft)">
    <circle cx="790" cy="483" r="16" fill="url(#ring2)"/>
  </g>

  <!-- Row 5+ (very far, almost abstract) -->
  <g opacity="0.09" filter="url(#lBlurMed)">
    <circle cx="310" cy="450" r="18" fill="url(#ring2)"/>
    <circle cx="420" cy="438" r="16" fill="url(#ring2)"/>
    <circle cx="525" cy="426" r="15" fill="url(#ring2)"/>
    <circle cx="625" cy="415" r="14" fill="url(#ring2)"/>
    <circle cx="720" cy="405" r="13" fill="url(#ring2)"/>
    <circle cx="810" cy="396" r="12" fill="url(#ring2)"/>
  </g>
  <g opacity="0.06" filter="url(#lBlurMed)">
    <circle cx="380" cy="370" r="14" fill="url(#ring2)"/>
    <circle cx="480" cy="360" r="13" fill="url(#ring2)"/>
    <circle cx="575" cy="351" r="12" fill="url(#ring2)"/>
    <circle cx="665" cy="342" r="11" fill="url(#ring2)"/>
    <circle cx="750" cy="334" r="10" fill="url(#ring2)"/>
    <circle cx="830" cy="327" r="9" fill="url(#ring2)"/>
  </g>

  <!-- Right-side secondary grid (mirrored depth, upper right) -->
  <g opacity="0.5">
    <circle cx="1750" cy="180" r="55" fill="url(#ring1)" filter="url(#lBlurTiny)"/>
    <circle cx="1750" cy="180" r="50" fill="none" stroke="#92400e" stroke-opacity="0.03" stroke-width="1.2"/>
    <circle cx="1750" cy="180" r="25" fill="none" stroke="#b45309" stroke-opacity="0.02" stroke-width="0.8"/>
  </g>
  <g opacity="0.45">
    <circle cx="1620" cy="210" r="48" fill="url(#ring2)" filter="url(#lBlurTiny)"/>
    <circle cx="1620" cy="210" r="44" fill="none" stroke="#92400e" stroke-opacity="0.025" stroke-width="1"/>
  </g>
  <g opacity="0.4">
    <circle cx="1860" cy="300" r="45" fill="url(#ring2)" filter="url(#lBlurLight)"/>
    <circle cx="1860" cy="300" r="41" fill="none" stroke="#92400e" stroke-opacity="0.022" stroke-width="1"/>
  </g>
  <g opacity="0.35" filter="url(#lBlurLight)">
    <circle cx="1500" cy="250" r="40" fill="url(#ring2)"/>
    <circle cx="1500" cy="250" r="36" fill="none" stroke="#92400e" stroke-opacity="0.02" stroke-width="0.8"/>
  </g>
  <g opacity="0.3" filter="url(#lBlurLight)">
    <circle cx="1730" cy="400" r="38" fill="url(#ring2)"/>
    <circle cx="1600" cy="350" r="33" fill="url(#ring2)"/>
    <circle cx="1850" cy="440" r="35" fill="url(#ring2)"/>
  </g>
  <g opacity="0.2" filter="url(#lBlurSoft)">
    <circle cx="1500" cy="420" r="28" fill="url(#ring2)"/>
    <circle cx="1650" cy="480" r="25" fill="url(#ring2)"/>
    <circle cx="1780" cy="530" r="22" fill="url(#ring2)"/>
    <circle cx="1880" cy="560" r="20" fill="url(#ring2)"/>
  </g>
  <g opacity="0.12" filter="url(#lBlurMed)">
    <circle cx="1550" cy="550" r="20" fill="url(#ring2)"/>
    <circle cx="1680" cy="600" r="18" fill="url(#ring2)"/>
    <circle cx="1800" cy="640" r="16" fill="url(#ring2)"/>
  </g>

  <!-- ═══ LAYER 3: Diagonal slat/rack lines (warm wood edge highlights) ═══ -->
  <g opacity="0.04" stroke="#d97706" stroke-width="1">
    <!-- Left-side slats -->
    <line x1="0" y1="1080" x2="200" y2="700" stroke-opacity="0.06"/>
    <line x1="140" y1="1080" x2="340" y2="700" stroke-opacity="0.05"/>
    <line x1="280" y1="1080" x2="480" y2="700" stroke-opacity="0.04"/>
    <line x1="420" y1="1080" x2="620" y2="700" stroke-opacity="0.035"/>
    <line x1="560" y1="1080" x2="760" y2="700" stroke-opacity="0.03"/>
    <line x1="700" y1="1080" x2="900" y2="700" stroke-opacity="0.025"/>
    <!-- Right-side slats -->
    <line x1="1920" y1="0" x2="1720" y2="380" stroke-opacity="0.05"/>
    <line x1="1780" y1="0" x2="1580" y2="380" stroke-opacity="0.04"/>
    <line x1="1640" y1="0" x2="1440" y2="380" stroke-opacity="0.035"/>
    <line x1="1500" y1="0" x2="1300" y2="380" stroke-opacity="0.03"/>
  </g>

  <!-- Horizontal shelf lines -->
  <g opacity="0.025" stroke="#b45309" stroke-width="0.8">
    <line x1="0" y1="830" x2="700" y2="660"/>
    <line x1="0" y1="720" x2="700" y2="570"/>
    <line x1="0" y1="620" x2="700" y2="490"/>
    <line x1="1400" y1="180" x2="1920" y2="350"/>
    <line x1="1400" y1="300" x2="1920" y2="470"/>
    <line x1="1400" y1="420" x2="1920" y2="580"/>
  </g>

  <!-- ═══ LAYER 4: Soft bokeh orbs ═══ -->

  <!-- Large warm bokeh -->
  <circle cx="350" cy="400" r="120" fill="url(#bokeh1)" filter="url(#lBlurMed)"/>
  <circle cx="1600" cy="650" r="140" fill="url(#bokeh2)" filter="url(#lBlurMed)"/>
  <circle cx="800" cy="250" r="100" fill="url(#bokeh3)" filter="url(#lBlurMed)"/>
  <circle cx="1200" cy="800" r="110" fill="url(#bokeh1)" filter="url(#lBlurMed)"/>

  <!-- Medium bokeh -->
  <circle cx="200" cy="600" r="70" fill="url(#bokeh2)" filter="url(#lBlurSoft)"/>
  <circle cx="600" cy="150" r="65" fill="url(#bokehAmber)" filter="url(#lBlurSoft)"/>
  <circle cx="1400" cy="300" r="75" fill="url(#bokeh3)" filter="url(#lBlurSoft)"/>
  <circle cx="1750" cy="850" r="80" fill="url(#bokeh1)" filter="url(#lBlurSoft)"/>
  <circle cx="950" cy="600" r="60" fill="url(#bokehGreen)" filter="url(#lBlurSoft)"/>

  <!-- Small bokeh -->
  <circle cx="150" cy="200" r="40" fill="url(#bokeh2)" filter="url(#lBlurLight)"/>
  <circle cx="480" cy="500" r="35" fill="url(#bokehAmber)" filter="url(#lBlurLight)"/>
  <circle cx="750" cy="800" r="45" fill="url(#bokeh3)" filter="url(#lBlurLight)"/>
  <circle cx="1100" cy="350" r="38" fill="url(#bokeh1)" filter="url(#lBlurLight)"/>
  <circle cx="1350" cy="550" r="42" fill="url(#bokehGreen)" filter="url(#lBlurLight)"/>
  <circle cx="1680" cy="150" r="35" fill="url(#bokeh2)" filter="url(#lBlurLight)"/>
  <circle cx="1850" cy="700" r="30" fill="url(#bokehAmber)" filter="url(#lBlurLight)"/>

  <!-- Tiny bright bokeh points -->
  <circle cx="280" cy="320" r="18" fill="url(#bokeh1)" filter="url(#lBlurTiny)"/>
  <circle cx="520" cy="680" r="15" fill="url(#bokeh2)" filter="url(#lBlurTiny)"/>
  <circle cx="700" cy="450" r="20" fill="url(#bokehAmber)" filter="url(#lBlurTiny)"/>
  <circle cx="1050" cy="520" r="16" fill="url(#bokeh3)" filter="url(#lBlurTiny)"/>
  <circle cx="1300" cy="180" r="18" fill="url(#bokeh1)" filter="url(#lBlurTiny)"/>
  <circle cx="1550" cy="780" r="22" fill="url(#bokeh2)" filter="url(#lBlurTiny)"/>

  <!-- ═══ LAYER 5: Warm edge highlights (catching light on glass) ═══ -->
  <g opacity="0.06">
    <!-- Crescent highlights on some circles -->
    <path d="M60,895 A55,55 0 0,1 100,945" fill="none" stroke="#fbbf24" stroke-width="1.5" stroke-opacity="0.15" filter="url(#lBlurTiny)"/>
    <path d="M200,878 A50,50 0 0,1 240,920" fill="none" stroke="#f59e0b" stroke-width="1.2" stroke-opacity="0.12" filter="url(#lBlurTiny)"/>
    <path d="M335,855 A45,45 0 0,1 370,892" fill="none" stroke="#fbbf24" stroke-width="1" stroke-opacity="0.1" filter="url(#lBlurTiny)"/>
    <path d="M1730,160 A48,48 0 0,1 1770,200" fill="none" stroke="#fbbf24" stroke-width="1.2" stroke-opacity="0.12" filter="url(#lBlurTiny)"/>
    <path d="M1600,192 A42,42 0 0,1 1638,228" fill="none" stroke="#f59e0b" stroke-width="1" stroke-opacity="0.1" filter="url(#lBlurTiny)"/>
  </g>

  <!-- ═══ LAYER 6: Subtle green indicator dot (like in reference) ═══ -->
  <circle cx="180" cy="940" r="4" fill="#4ade80" opacity="0.12" filter="url(#lBlurTiny)"/>
  <circle cx="180" cy="940" r="2" fill="#4ade80" opacity="0.2"/>

  <!-- Small amber indicator -->
  <circle cx="1800" cy="250" r="3" fill="#fbbf24" opacity="0.15" filter="url(#lBlurTiny)"/>
  <circle cx="1800" cy="250" r="1.5" fill="#fbbf24" opacity="0.25"/>

  <!-- ═══ LAYER 7: Warm point highlights ═══ -->
  <circle cx="120" cy="850" r="1.5" fill="#fbbf24" opacity="0.1"/>
  <circle cx="300" cy="820" r="1.2" fill="#d97706" opacity="0.08"/>
  <circle cx="450" cy="790" r="1" fill="#fbbf24" opacity="0.07"/>
  <circle cx="580" cy="760" r="0.8" fill="#f59e0b" opacity="0.06"/>
  <circle cx="1550" cy="280" r="1.5" fill="#fbbf24" opacity="0.09"/>
  <circle cx="1700" cy="350" r="1.2" fill="#d97706" opacity="0.07"/>
  <circle cx="1830" cy="400" r="1" fill="#fbbf24" opacity="0.06"/>
  <circle cx="400" cy="300" r="1" fill="#fbbf24" opacity="0.05"/>
  <circle cx="1100" cy="600" r="1.2" fill="#d97706" opacity="0.04"/>
  <circle cx="850" cy="500" r="0.8" fill="#fbbf24" opacity="0.05"/>

  <!-- ═══ LAYER 8: Film grain ═══ -->
  <rect width="1920" height="1080" fill="url(#lGrain)"/>

  <!-- ═══ LAYER 9: Vignette ═══ -->
  <rect width="1920" height="1080" fill="url(#lVignette)"/>

  <!-- Extra edge darkening -->
  <rect width="1920" height="100" fill="#050302" opacity="0.5"/>
  <rect y="980" width="1920" height="100" fill="#050302" opacity="0.6"/>
  <rect width="80" height="1080" fill="#050302" opacity="0.5"/>
  <rect x="1840" width="80" height="1080" fill="#050302" opacity="0.5"/>
</svg>
