<svg xmlns="http://www.w3.org/2000/svg" viewBox="0 0 1920 1080" preserveAspectRatio="xMidYMid slice">
  <defs>
    <!-- Gradients -->
    <linearGradient id="sky" x1="0" y1="0" x2="0" y2="1">
      <stop offset="0%" stop-color="#0a0b0f"/>
      <stop offset="40%" stop-color="#0d1117"/>
      <stop offset="100%" stop-color="#111827"/>
    </linearGradient>
    <radialGradient id="glow1" cx="25%" cy="35%" r="40%">
      <stop offset="0%" stop-color="#6366f1" stop-opacity="0.12"/>
      <stop offset="100%" stop-color="transparent" stop-opacity="0"/>
    </radialGradient>
    <radialGradient id="glow2" cx="80%" cy="60%" r="35%">
      <stop offset="0%" stop-color="#8b5cf6" stop-opacity="0.08"/>
      <stop offset="100%" stop-color="transparent" stop-opacity="0"/>
    </radialGradient>
    <radialGradient id="glow3" cx="60%" cy="20%" r="25%">
      <stop offset="0%" stop-color="#ddfc74" stop-opacity="0.05"/>
      <stop offset="100%" stop-color="transparent" stop-opacity="0"/>
    </radialGradient>
    <linearGradient id="buildingGrad1" x1="0" y1="0" x2="0" y2="1">
      <stop offset="0%" stop-color="#1a1f35"/>
      <stop offset="100%" stop-color="#0d1017"/>
    </linearGradient>
    <linearGradient id="buildingGrad2" x1="0" y1="0" x2="0" y2="1">
      <stop offset="0%" stop-color="#161b2e"/>
      <stop offset="100%" stop-color="#0b0e18"/>
    </linearGradient>
    <linearGradient id="groundGrad" x1="0" y1="0" x2="0" y2="1">
      <stop offset="0%" stop-color="#111827"/>
      <stop offset="100%" stop-color="#030712"/>
    </linearGradient>
    <linearGradient id="neonPurple" x1="0" y1="0" x2="1" y2="0">
      <stop offset="0%" stop-color="#6366f1" stop-opacity="0"/>
      <stop offset="50%" stop-color="#6366f1" stop-opacity="0.8"/>
      <stop offset="100%" stop-color="#6366f1" stop-opacity="0"/>
    </linearGradient>
    <linearGradient id="neonGreen" x1="0" y1="0" x2="1" y2="0">
      <stop offset="0%" stop-color="#ddfc74" stop-opacity="0"/>
      <stop offset="50%" stop-color="#ddfc74" stop-opacity="0.6"/>
      <stop offset="100%" stop-color="#ddfc74" stop-opacity="0"/>
    </linearGradient>
    <filter id="softGlow">
      <feGaussianBlur stdDeviation="3" result="blur"/>
      <feMerge><feMergeNode in="blur"/><feMergeNode in="SourceGraphic"/></feMerge>
    </filter>
    <filter id="bigGlow">
      <feGaussianBlur stdDeviation="8"/>
    </filter>
    <filter id="windowGlow">
      <feGaussianBlur stdDeviation="2" result="blur"/>
      <feMerge><feMergeNode in="blur"/><feMergeNode in="SourceGraphic"/></feMerge>
    </filter>
  </defs>

  <!-- Sky -->
  <rect width="1920" height="1080" fill="url(#sky)"/>

  <!-- Ambient glow patches -->
  <rect width="1920" height="1080" fill="url(#glow1)"/>
  <rect width="1920" height="1080" fill="url(#glow2)"/>
  <rect width="1920" height="1080" fill="url(#glow3)"/>

  <!-- Stars -->
  <g fill="#fff" opacity="0.15">
    <circle cx="150" cy="80" r="1"/><circle cx="320" cy="120" r="0.8"/>
    <circle cx="500" cy="50" r="1.2"/><circle cx="700" cy="90" r="0.7"/>
    <circle cx="900" cy="40" r="1"/><circle cx="1100" cy="110" r="0.9"/>
    <circle cx="1300" cy="60" r="1.1"/><circle cx="1500" cy="85" r="0.8"/>
    <circle cx="1700" cy="45" r="1"/><circle cx="1850" cy="100" r="0.7"/>
    <circle cx="250" cy="200" r="0.6"/><circle cx="450" cy="180" r="1"/>
    <circle cx="650" cy="160" r="0.8"/><circle cx="1050" cy="200" r="0.9"/>
    <circle cx="1250" cy="150" r="0.7"/><circle cx="1600" cy="170" r="1.1"/>
    <circle cx="80" cy="300" r="0.5"/><circle cx="1800" cy="250" r="0.8"/>
  </g>

  <!-- Distant city skyline (back layer) -->
  <g opacity="0.25">
    <rect x="60" y="480" width="45" height="280" rx="2" fill="#151a28"/>
    <rect x="115" y="520" width="35" height="240" rx="2" fill="#131825"/>
    <rect x="160" y="450" width="55" height="310" rx="2" fill="#161b2e"/>
    <rect x="225" y="500" width="40" height="260" rx="2" fill="#141929"/>
    <rect x="280" y="430" width="50" height="330" rx="2" fill="#151a28"/>
    <rect x="340" y="490" width="38" height="270" rx="2" fill="#131825"/>
    <rect x="1500" y="460" width="50" height="300" rx="2" fill="#151a28"/>
    <rect x="1560" y="500" width="42" height="260" rx="2" fill="#131825"/>
    <rect x="1615" y="440" width="55" height="320" rx="2" fill="#161b2e"/>
    <rect x="1680" y="480" width="40" height="280" rx="2" fill="#141929"/>
    <rect x="1730" y="420" width="60" height="340" rx="2" fill="#151a28"/>
    <rect x="1800" y="470" width="45" height="290" rx="2" fill="#131825"/>
    <rect x="1855" y="510" width="65" height="250" rx="2" fill="#161b2e"/>
  </g>

  <!-- Mid-layer buildings (left side) -->
  <g>
    <!-- Tower 1 -->
    <rect x="40" y="380" width="80" height="420" rx="3" fill="url(#buildingGrad1)"/>
    <rect x="48" y="395" width="12" height="8" rx="1" fill="#6366f1" opacity="0.3" filter="url(#windowGlow)"/>
    <rect x="68" y="395" width="12" height="8" rx="1" fill="#8b5cf6" opacity="0.2"/>
    <rect x="88" y="395" width="12" height="8" rx="1" fill="#6366f1" opacity="0.15"/>
    <rect x="48" y="415" width="12" height="8" rx="1" fill="#ddfc74" opacity="0.25" filter="url(#windowGlow)"/>
    <rect x="68" y="415" width="12" height="8" rx="1" fill="#6366f1" opacity="0.2"/>
    <rect x="88" y="415" width="12" height="8" rx="1" fill="#ddfc74" opacity="0.15"/>
    <rect x="48" y="435" width="12" height="8" rx="1" fill="#6366f1" opacity="0.2"/>
    <rect x="68" y="435" width="12" height="8" rx="1" fill="#8b5cf6" opacity="0.3" filter="url(#windowGlow)"/>
    <rect x="88" y="435" width="12" height="8" rx="1" fill="#6366f1" opacity="0.1"/>
    <rect x="48" y="455" width="12" height="8" rx="1" fill="#ddfc74" opacity="0.15"/>
    <rect x="68" y="455" width="12" height="8" rx="1" fill="#6366f1" opacity="0.25" filter="url(#windowGlow)"/>
    <rect x="88" y="455" width="12" height="8" rx="1" fill="#8b5cf6" opacity="0.2"/>
    <rect x="48" y="475" width="12" height="8" rx="1" fill="#6366f1" opacity="0.2"/>
    <rect x="68" y="475" width="12" height="8" rx="1" fill="#ddfc74" opacity="0.2"/>
    <rect x="88" y="475" width="12" height="8" rx="1" fill="#6366f1" opacity="0.3" filter="url(#windowGlow)"/>
    <rect x="48" y="495" width="12" height="8" rx="1" fill="#8b5cf6" opacity="0.15"/>
    <rect x="68" y="495" width="12" height="8" rx="1" fill="#6366f1" opacity="0.2"/>
    <rect x="88" y="495" width="12" height="8" rx="1" fill="#ddfc74" opacity="0.25" filter="url(#windowGlow)"/>

    <!-- Tower 2 -->
    <rect x="140" y="320" width="100" height="480" rx="3" fill="url(#buildingGrad2)"/>
    <rect x="150" y="340" width="14" height="10" rx="1" fill="#6366f1" opacity="0.35" filter="url(#windowGlow)"/>
    <rect x="172" y="340" width="14" height="10" rx="1" fill="#ddfc74" opacity="0.2"/>
    <rect x="194" y="340" width="14" height="10" rx="1" fill="#8b5cf6" opacity="0.25" filter="url(#windowGlow)"/>
    <rect x="216" y="340" width="14" height="10" rx="1" fill="#6366f1" opacity="0.15"/>
    <rect x="150" y="365" width="14" height="10" rx="1" fill="#ddfc74" opacity="0.15"/>
    <rect x="172" y="365" width="14" height="10" rx="1" fill="#6366f1" opacity="0.3" filter="url(#windowGlow)"/>
    <rect x="194" y="365" width="14" height="10" rx="1" fill="#6366f1" opacity="0.1"/>
    <rect x="216" y="365" width="14" height="10" rx="1" fill="#8b5cf6" opacity="0.3" filter="url(#windowGlow)"/>
    <rect x="150" y="390" width="14" height="10" rx="1" fill="#8b5cf6" opacity="0.2"/>
    <rect x="172" y="390" width="14" height="10" rx="1" fill="#ddfc74" opacity="0.25" filter="url(#windowGlow)"/>
    <rect x="194" y="390" width="14" height="10" rx="1" fill="#6366f1" opacity="0.2"/>
    <rect x="216" y="390" width="14" height="10" rx="1" fill="#6366f1" opacity="0.15"/>
    <rect x="150" y="415" width="14" height="10" rx="1" fill="#6366f1" opacity="0.25" filter="url(#windowGlow)"/>
    <rect x="172" y="415" width="14" height="10" rx="1" fill="#8b5cf6" opacity="0.15"/>
    <rect x="194" y="415" width="14" height="10" rx="1" fill="#ddfc74" opacity="0.3" filter="url(#windowGlow)"/>
    <rect x="216" y="415" width="14" height="10" rx="1" fill="#6366f1" opacity="0.2"/>
    <rect x="150" y="440" width="14" height="10" rx="1" fill="#6366f1" opacity="0.15"/>
    <rect x="172" y="440" width="14" height="10" rx="1" fill="#6366f1" opacity="0.2"/>
    <rect x="194" y="440" width="14" height="10" rx="1" fill="#8b5cf6" opacity="0.2"/>
    <rect x="216" y="440" width="14" height="10" rx="1" fill="#ddfc74" opacity="0.2" filter="url(#windowGlow)"/>

    <!-- Tower 3 - tall narrow -->
    <rect x="260" y="280" width="65" height="520" rx="3" fill="url(#buildingGrad1)"/>
    <rect x="270" y="300" width="10" height="7" rx="1" fill="#ddfc74" opacity="0.3" filter="url(#windowGlow)"/>
    <rect x="286" y="300" width="10" height="7" rx="1" fill="#6366f1" opacity="0.2"/>
    <rect x="302" y="300" width="10" height="7" rx="1" fill="#8b5cf6" opacity="0.25" filter="url(#windowGlow)"/>
    <rect x="270" y="320" width="10" height="7" rx="1" fill="#6366f1" opacity="0.2"/>
    <rect x="286" y="320" width="10" height="7" rx="1" fill="#ddfc74" opacity="0.2" filter="url(#windowGlow)"/>
    <rect x="302" y="320" width="10" height="7" rx="1" fill="#6366f1" opacity="0.15"/>
    <rect x="270" y="340" width="10" height="7" rx="1" fill="#8b5cf6" opacity="0.3" filter="url(#windowGlow)"/>
    <rect x="286" y="340" width="10" height="7" rx="1" fill="#6366f1" opacity="0.1"/>
    <rect x="302" y="340" width="10" height="7" rx="1" fill="#ddfc74" opacity="0.2"/>
    <!-- Antenna -->
    <rect x="289" y="260" width="3" height="20" rx="1" fill="#1e2640"/>
    <circle cx="290.5" cy="258" r="3" fill="#6366f1" opacity="0.6" filter="url(#softGlow)"/>

    <!-- Tower 4 -->
    <rect x="345" y="360" width="90" height="440" rx="3" fill="url(#buildingGrad2)"/>
    <rect x="355" y="380" width="12" height="8" rx="1" fill="#8b5cf6" opacity="0.25" filter="url(#windowGlow)"/>
    <rect x="375" y="380" width="12" height="8" rx="1" fill="#ddfc74" opacity="0.2"/>
    <rect x="395" y="380" width="12" height="8" rx="1" fill="#6366f1" opacity="0.3" filter="url(#windowGlow)"/>
    <rect x="415" y="380" width="12" height="8" rx="1" fill="#6366f1" opacity="0.15"/>
    <rect x="355" y="400" width="12" height="8" rx="1" fill="#6366f1" opacity="0.2"/>
    <rect x="375" y="400" width="12" height="8" rx="1" fill="#8b5cf6" opacity="0.3" filter="url(#windowGlow)"/>
    <rect x="395" y="400" width="12" height="8" rx="1" fill="#ddfc74" opacity="0.15"/>
    <rect x="415" y="400" width="12" height="8" rx="1" fill="#6366f1" opacity="0.25" filter="url(#windowGlow)"/>
  </g>

  <!-- Mid-layer buildings (right side) -->
  <g>
    <rect x="1480" y="350" width="95" height="450" rx="3" fill="url(#buildingGrad1)"/>
    <rect x="1490" y="370" width="13" height="9" rx="1" fill="#6366f1" opacity="0.3" filter="url(#windowGlow)"/>
    <rect x="1510" y="370" width="13" height="9" rx="1" fill="#ddfc74" opacity="0.2"/>
    <rect x="1530" y="370" width="13" height="9" rx="1" fill="#8b5cf6" opacity="0.25" filter="url(#windowGlow)"/>
    <rect x="1550" y="370" width="13" height="9" rx="1" fill="#6366f1" opacity="0.15"/>
    <rect x="1490" y="395" width="13" height="9" rx="1" fill="#ddfc74" opacity="0.25" filter="url(#windowGlow)"/>
    <rect x="1510" y="395" width="13" height="9" rx="1" fill="#6366f1" opacity="0.2"/>
    <rect x="1530" y="395" width="13" height="9" rx="1" fill="#6366f1" opacity="0.15"/>
    <rect x="1550" y="395" width="13" height="9" rx="1" fill="#8b5cf6" opacity="0.3" filter="url(#windowGlow)"/>
    <rect x="1490" y="420" width="13" height="9" rx="1" fill="#8b5cf6" opacity="0.2"/>
    <rect x="1510" y="420" width="13" height="9" rx="1" fill="#6366f1" opacity="0.3" filter="url(#windowGlow)"/>
    <rect x="1530" y="420" width="13" height="9" rx="1" fill="#ddfc74" opacity="0.2"/>
    <rect x="1550" y="420" width="13" height="9" rx="1" fill="#6366f1" opacity="0.1"/>

    <rect x="1590" y="290" width="75" height="510" rx="3" fill="url(#buildingGrad2)"/>
    <rect x="1600" y="310" width="11" height="8" rx="1" fill="#ddfc74" opacity="0.3" filter="url(#windowGlow)"/>
    <rect x="1618" y="310" width="11" height="8" rx="1" fill="#6366f1" opacity="0.2"/>
    <rect x="1636" y="310" width="11" height="8" rx="1" fill="#8b5cf6" opacity="0.2"/>
    <rect x="1600" y="330" width="11" height="8" rx="1" fill="#6366f1" opacity="0.2"/>
    <rect x="1618" y="330" width="11" height="8" rx="1" fill="#ddfc74" opacity="0.2" filter="url(#windowGlow)"/>
    <rect x="1636" y="330" width="11" height="8" rx="1" fill="#6366f1" opacity="0.3" filter="url(#windowGlow)"/>
    <rect x="1600" y="350" width="11" height="8" rx="1" fill="#8b5cf6" opacity="0.25" filter="url(#windowGlow)"/>
    <rect x="1618" y="350" width="11" height="8" rx="1" fill="#6366f1" opacity="0.15"/>
    <rect x="1636" y="350" width="11" height="8" rx="1" fill="#ddfc74" opacity="0.15"/>
    <!-- Antenna -->
    <rect x="1625" y="270" width="3" height="20" rx="1" fill="#1e2640"/>
    <circle cx="1626.5" cy="268" r="3" fill="#ddfc74" opacity="0.5" filter="url(#softGlow)"/>

    <rect x="1685" y="370" width="85" height="430" rx="3" fill="url(#buildingGrad1)"/>
    <rect x="1695" y="390" width="12" height="8" rx="1" fill="#6366f1" opacity="0.25" filter="url(#windowGlow)"/>
    <rect x="1715" y="390" width="12" height="8" rx="1" fill="#8b5cf6" opacity="0.2"/>
    <rect x="1735" y="390" width="12" height="8" rx="1" fill="#ddfc74" opacity="0.3" filter="url(#windowGlow)"/>
    <rect x="1755" y="390" width="12" height="8" rx="1" fill="#6366f1" opacity="0.15"/>
    <rect x="1695" y="410" width="12" height="8" rx="1" fill="#ddfc74" opacity="0.15"/>
    <rect x="1715" y="410" width="12" height="8" rx="1" fill="#6366f1" opacity="0.3" filter="url(#windowGlow)"/>
    <rect x="1735" y="410" width="12" height="8" rx="1" fill="#8b5cf6" opacity="0.2"/>
    <rect x="1755" y="410" width="12" height="8" rx="1" fill="#6366f1" opacity="0.2"/>

    <rect x="1790" y="330" width="130" height="470" rx="3" fill="url(#buildingGrad2)"/>
    <rect x="1800" y="350" width="14" height="10" rx="1" fill="#8b5cf6" opacity="0.3" filter="url(#windowGlow)"/>
    <rect x="1822" y="350" width="14" height="10" rx="1" fill="#6366f1" opacity="0.2"/>
    <rect x="1844" y="350" width="14" height="10" rx="1" fill="#ddfc74" opacity="0.25" filter="url(#windowGlow)"/>
    <rect x="1866" y="350" width="14" height="10" rx="1" fill="#6366f1" opacity="0.15"/>
    <rect x="1888" y="350" width="14" height="10" rx="1" fill="#8b5cf6" opacity="0.2"/>
    <rect x="1800" y="375" width="14" height="10" rx="1" fill="#6366f1" opacity="0.15"/>
    <rect x="1822" y="375" width="14" height="10" rx="1" fill="#8b5cf6" opacity="0.25" filter="url(#windowGlow)"/>
    <rect x="1844" y="375" width="14" height="10" rx="1" fill="#6366f1" opacity="0.2"/>
    <rect x="1866" y="375" width="14" height="10" rx="1" fill="#ddfc74" opacity="0.3" filter="url(#windowGlow)"/>
    <rect x="1888" y="375" width="14" height="10" rx="1" fill="#6366f1" opacity="0.1"/>
  </g>

  <!-- Neon horizontal lines (street level glow) -->
  <rect x="0" y="795" width="600" height="2" fill="url(#neonPurple)" filter="url(#softGlow)"/>
  <rect x="1320" y="795" width="600" height="2" fill="url(#neonPurple)" filter="url(#softGlow)"/>
  <rect x="200" y="810" width="400" height="1.5" fill="url(#neonGreen)" opacity="0.4" filter="url(#softGlow)"/>
  <rect x="1400" y="810" width="400" height="1.5" fill="url(#neonGreen)" opacity="0.4" filter="url(#softGlow)"/>

  <!-- Floating geometric game elements -->
  <g opacity="0.5">
    <!-- Floating cube (left) -->
    <g transform="translate(180,220) rotate(-15)">
      <path d="M0,20 L30,0 L60,20 L30,40 Z" fill="none" stroke="#6366f1" stroke-width="1.5" opacity="0.5"/>
      <path d="M0,20 L0,50 L30,70 L30,40 Z" fill="#6366f1" fill-opacity="0.08" stroke="#6366f1" stroke-width="1" opacity="0.4"/>
      <path d="M60,20 L60,50 L30,70 L30,40 Z" fill="#8b5cf6" fill-opacity="0.06" stroke="#8b5cf6" stroke-width="1" opacity="0.4"/>
    </g>
    <!-- Floating diamond (right) -->
    <g transform="translate(1650,180) rotate(10)">
      <path d="M25,0 L50,25 L25,50 L0,25 Z" fill="none" stroke="#ddfc74" stroke-width="1.5" opacity="0.4"/>
      <path d="M25,5 L45,25 L25,45 L5,25 Z" fill="#ddfc74" fill-opacity="0.04"/>
    </g>
    <!-- Triangle -->
    <g transform="translate(380,150)">
      <path d="M20,0 L40,35 L0,35 Z" fill="none" stroke="#8b5cf6" stroke-width="1.2" opacity="0.35"/>
    </g>
    <!-- Circle ring -->
    <g transform="translate(1500,240)">
      <circle cx="20" cy="20" r="18" fill="none" stroke="#6366f1" stroke-width="1.2" opacity="0.3"/>
      <circle cx="20" cy="20" r="8" fill="#6366f1" fill-opacity="0.06"/>
    </g>
    <!-- Cross/plus -->
    <g transform="translate(1750,320)">
      <rect x="8" y="0" width="4" height="20" rx="2" fill="#ddfc74" opacity="0.3"/>
      <rect x="0" y="8" width="20" height="4" rx="2" fill="#ddfc74" opacity="0.3"/>
    </g>
    <!-- Hexagon -->
    <g transform="translate(100,550)" opacity="0.3">
      <path d="M15,0 L30,8 L30,24 L15,32 L0,24 L0,8 Z" fill="none" stroke="#8b5cf6" stroke-width="1.2"/>
    </g>
  </g>

  <!-- Blocky game characters (simplified, Roblox-inspired silhouettes) -->
  <!-- Character 1 - left foreground -->
  <g transform="translate(480,580)" opacity="0.35">
    <!-- Body -->
    <rect x="0" y="30" width="40" height="50" rx="4" fill="#1a1f35"/>
    <!-- Head -->
    <rect x="4" y="0" width="32" height="32" rx="6" fill="#1e2540"/>
    <!-- Eyes -->
    <rect x="12" y="10" width="6" height="6" rx="1" fill="#6366f1" opacity="0.6" filter="url(#windowGlow)"/>
    <rect x="22" y="10" width="6" height="6" rx="1" fill="#6366f1" opacity="0.6" filter="url(#windowGlow)"/>
    <!-- Legs -->
    <rect x="4" y="80" width="14" height="30" rx="3" fill="#151a28"/>
    <rect x="22" y="80" width="14" height="30" rx="3" fill="#151a28"/>
    <!-- Arms -->
    <rect x="-12" y="35" width="12" height="35" rx="3" fill="#1a1f35"/>
    <rect x="40" y="35" width="12" height="35" rx="3" fill="#1a1f35"/>
    <!-- Item (sword) -->
    <rect x="45" y="20" width="4" height="40" rx="1" fill="#ddfc74" opacity="0.4" filter="url(#softGlow)"/>
  </g>

  <!-- Character 2 - right foreground -->
  <g transform="translate(1350,600)" opacity="0.3">
    <!-- Body -->
    <rect x="0" y="28" width="45" height="55" rx="4" fill="#1e2540"/>
    <!-- Head -->
    <rect x="6" y="0" width="33" height="30" rx="5" fill="#1a2038"/>
    <!-- Visor/eyes -->
    <rect x="10" y="10" width="25" height="8" rx="2" fill="#8b5cf6" opacity="0.5" filter="url(#windowGlow)"/>
    <!-- Legs -->
    <rect x="4" y="83" width="16" height="28" rx="3" fill="#161b2e"/>
    <rect x="25" y="83" width="16" height="28" rx="3" fill="#161b2e"/>
    <!-- Arms -->
    <rect x="-10" y="33" width="10" height="38" rx="3" fill="#1e2540"/>
    <rect x="45" y="33" width="10" height="38" rx="3" fill="#1e2540"/>
    <!-- Shield -->
    <path d="M-18,35 L-18,60 L-8,65 L-8,35 Z" fill="#6366f1" fill-opacity="0.15" stroke="#6366f1" stroke-width="1" opacity="0.4"/>
  </g>

  <!-- Character 3 - far right small -->
  <g transform="translate(1720,640) scale(0.7)" opacity="0.2">
    <rect x="0" y="25" width="35" height="45" rx="4" fill="#1a1f35"/>
    <rect x="3" y="0" width="29" height="27" rx="5" fill="#1e2540"/>
    <rect x="10" y="8" width="5" height="5" rx="1" fill="#ddfc74" opacity="0.5"/>
    <rect x="20" y="8" width="5" height="5" rx="1" fill="#ddfc74" opacity="0.5"/>
    <rect x="2" y="70" width="13" height="25" rx="3" fill="#151a28"/>
    <rect x="20" y="70" width="13" height="25" rx="3" fill="#151a28"/>
  </g>

  <!-- Ground plane with grid -->
  <rect x="0" y="800" width="1920" height="280" fill="url(#groundGrad)"/>

  <!-- Perspective grid lines on ground -->
  <g opacity="0.06" stroke="#6366f1" stroke-width="0.8">
    <line x1="960" y1="800" x2="0" y2="1080"/>
    <line x1="960" y1="800" x2="200" y2="1080"/>
    <line x1="960" y1="800" x2="400" y2="1080"/>
    <line x1="960" y1="800" x2="600" y2="1080"/>
    <line x1="960" y1="800" x2="800" y2="1080"/>
    <line x1="960" y1="800" x2="1120" y2="1080"/>
    <line x1="960" y1="800" x2="1320" y2="1080"/>
    <line x1="960" y1="800" x2="1520" y2="1080"/>
    <line x1="960" y1="800" x2="1720" y2="1080"/>
    <line x1="960" y1="800" x2="1920" y2="1080"/>
  </g>
  <g opacity="0.04" stroke="#8b5cf6" stroke-width="0.5">
    <line x1="0" y1="840" x2="1920" y2="840"/>
    <line x1="0" y1="890" x2="1920" y2="890"/>
    <line x1="0" y1="950" x2="1920" y2="950"/>
    <line x1="0" y1="1020" x2="1920" y2="1020"/>
  </g>

  <!-- Foreground particles / dust -->
  <g fill="#6366f1" opacity="0.2">
    <circle cx="300" cy="500" r="2"><animate attributeName="cy" values="500;480;500" dur="5s" repeatCount="indefinite"/></circle>
    <circle cx="500" cy="400" r="1.5"><animate attributeName="cy" values="400;385;400" dur="7s" repeatCount="indefinite"/></circle>
    <circle cx="1400" cy="450" r="2"><animate attributeName="cy" values="450;430;450" dur="6s" repeatCount="indefinite"/></circle>
    <circle cx="1600" cy="520" r="1.5"><animate attributeName="cy" values="520;505;520" dur="4s" repeatCount="indefinite"/></circle>
  </g>
  <g fill="#ddfc74" opacity="0.15">
    <circle cx="400" cy="350" r="1.5"><animate attributeName="cy" values="350;340;350" dur="6s" repeatCount="indefinite"/></circle>
    <circle cx="1550" cy="380" r="1"><animate attributeName="cy" values="380;370;380" dur="5s" repeatCount="indefinite"/></circle>
  </g>
  <g fill="#8b5cf6" opacity="0.15">
    <circle cx="250" cy="600" r="1.5"><animate attributeName="cy" values="600;590;600" dur="4s" repeatCount="indefinite"/></circle>
    <circle cx="1700" cy="480" r="2"><animate attributeName="cy" values="480;465;480" dur="7s" repeatCount="indefinite"/></circle>
  </g>

  <!-- Vignette overlay -->
  <rect width="1920" height="1080" fill="url(#sky)" opacity="0.3"/>
  <radialGradient id="vignette" cx="50%" cy="50%" r="70%">
    <stop offset="0%" stop-color="transparent"/>
    <stop offset="100%" stop-color="#030712" stop-opacity="0.6"/>
  </radialGradient>
  <rect width="1920" height="1080" fill="url(#vignette)"/>
</svg>
